# xmcd
# 
# Track frame offsets:
#     150
#     15884
#     31245
#     48198
#     66358
#     84193
#     104267
#     124458
#     139264
#     165110
# 
# Disc length: 2483
# 
# Revision: 1
# Processed by: cddbd v1.5.2PL0 Copyright (c) Steve Scherf et al.
# Submitted via: fre:ac v1.0.31
# 
DISCID=7209b10a
DTITLE=THE ORAL CIGARETTES - UNOFFICIAL
DYEAR=2017
DGENRE=J-rock
TTITLE0=リコリス
TTITLE1=CATCH ME
TTITLE2=悪戯ショータイム
TTITLE3=5150
TTITLE4=WARWARWAR
TTITLE5=エンドロール
TTITLE6=DIP-BAP
TTITLE7=Shala la
TTITLE8=不透明な雪化粧
TTITLE9=LOVE
EXTD=
EXTT0=
EXTT1=
EXTT2=
EXTT3=
EXTT4=
EXTT5=
EXTT6=
EXTT7=
EXTT8=
EXTT9=
PLAYORDER=
